<svg width="1743" height="1084" viewBox="0 0 1743 1084" fill="none" xmlns="http://www.w3.org/2000/svg">
<rect width="1743" height="1084" fill="white"/>
<path d="M209 654.909H335.113V637.941L385.527 596L953.196 596L1578 677" stroke="#858585" stroke-width="11"/>
<path d="M294 356L294 409.091H335.113V426.059L385.527 468L953.196 468L1578 387" stroke="#858585" stroke-width="11"/>
<path d="M250.113 356L250.113 409.091H209" stroke="#858585" stroke-width="11"/>
<path d="M225.589 571H195.653L240.215 560.062L296.726 563.669L225.589 571Z" stroke="#858585" stroke-width="16"/>
<path d="M225.589 506H195.653L240.215 516.938L296.726 513.331L225.589 506Z" stroke="#858585" stroke-width="16"/>
<line x1="208.5" y1="801" x2="208.5" y2="329" stroke="black"/>
<path d="M657 473L651.226 483L662.774 483L657 473ZM657 591L662.773 581L651.226 581L657 591ZM656 482L656 582L658 582L658 482L656 482Z" fill="black"/>
<path d="M239 525L233.226 535L244.774 535L239 525ZM239 552L244.774 542L233.226 542L239 552ZM238 534L238 543L240 543L240 534L238 534Z" fill="black"/>
<path d="M357 518L351.226 528L362.774 528L357 518ZM357 559L362.774 549L351.227 549L357 559ZM356 527L356 550L358 550L358 527L356 527Z" fill="black"/>
<path d="M357 788L367 793.774V782.226L357 788ZM384 788L374 782.226V793.774L384 788ZM366 789H375V787H366V789Z" fill="black"/>
<path d="M384 788L394 793.774V782.226L384 788ZM955 788L945 782.226V793.774L955 788ZM393 789H946V787H393V789Z" fill="black"/>
<path d="M955 788L965 793.774V782.226L955 788ZM1578 788L1568 782.226V793.774L1578 788ZM964 789H1569V787H964V789Z" fill="black"/>
<path d="M1578 392L1572.23 402L1583.77 402L1578 392ZM1578 671L1583.77 661L1572.23 661L1578 671ZM1577 401L1577 662L1579 662L1579 401L1577 401Z" fill="black"/>
<line x1="383.5" y1="881" x2="383.5" y2="371" stroke="black"/>
<line x1="238.5" y1="881" x2="238.5" y2="525" stroke="black"/>
<line x1="356.5" y1="881" x2="356.5" y2="371" stroke="black"/>
<line x1="954.5" y1="881" x2="954.5" y2="371" stroke="black"/>
<line x1="1577.5" y1="881" x2="1577.5" y2="371" stroke="black"/>
<path d="M1263.97 776H1253.44V774.348H1257.79V759.945H1253.47V758.293H1259.78V774.348H1263.97V776ZM1269.6 768.711V770.539C1269.6 772.883 1270.95 774.395 1273.04 774.395C1275.13 774.395 1276.48 772.895 1276.48 770.539V768.711C1276.48 766.367 1275.13 764.867 1273.04 764.867C1270.95 764.867 1269.6 766.367 1269.6 768.711ZM1276.49 774.055H1276.27C1275.61 775.461 1274.27 776.211 1272.46 776.211C1269.52 776.211 1267.59 774.09 1267.59 770.82V768.453C1267.59 765.195 1269.52 763.074 1272.46 763.074C1274.3 763.074 1275.66 763.859 1276.21 765.254H1276.42V758.293H1278.45V776H1276.49V774.055Z" fill="black"/>
<path d="M654.973 776H644.438V774.348H648.785V759.945H644.473V758.293H650.777V774.348H654.973V776ZM670.441 776H668.074L663.727 769.684L661.98 771.371V776H659.988V758.293H661.98V768.992H662.133L667.676 763.285H670.09L665.156 768.312L670.441 776Z" fill="black"/>
<path d="M279.973 824H269.438V822.348H273.785V807.945H269.473V806.293H275.777V822.348H279.973V824ZM288.727 814.531H288.984C289.453 812.176 291.035 810.957 293.484 810.957C294.211 810.957 294.902 811.062 295.324 811.238V813.477C294.738 813.266 293.918 813.125 293.227 813.125C290.414 813.125 288.75 815.07 288.75 818.305V822.406H292.688V824H284.238V822.406H286.805V812.879H283.98V811.285H288.727V814.531ZM299.461 814.719C299.461 812.516 301.336 811.039 304.137 811.039C306.785 811.039 308.578 812.363 308.812 814.484H306.891C306.656 813.371 305.59 812.691 304.102 812.691C302.484 812.691 301.441 813.441 301.441 814.602C301.441 815.574 302.098 816.125 303.691 816.477L305.484 816.887C307.957 817.449 309.082 818.527 309.082 820.367C309.082 822.711 307.125 824.234 304.113 824.234C301.23 824.234 299.32 822.887 299.098 820.707H301.125C301.418 821.879 302.543 822.559 304.184 822.559C305.918 822.559 307.02 821.773 307.02 820.555C307.02 819.547 306.398 819.008 304.781 818.645L302.895 818.211C300.598 817.684 299.461 816.523 299.461 814.719Z" fill="black"/>
<path d="M681.762 538.711V540.539C681.762 542.883 683.109 544.395 685.207 544.395C687.293 544.395 688.641 542.895 688.641 540.539V538.711C688.641 536.367 687.293 534.867 685.207 534.867C683.109 534.867 681.762 536.367 681.762 538.711ZM688.652 544.055H688.43C687.773 545.461 686.438 546.211 684.621 546.211C681.68 546.211 679.758 544.09 679.758 540.82V538.453C679.758 535.195 681.68 533.074 684.621 533.074C686.461 533.074 687.82 533.859 688.371 535.254H688.582V528.293H690.609V546H688.652V544.055ZM694.863 533.848C694.863 530.871 697.066 528.738 700.148 528.738C703.254 528.738 705.387 530.66 705.387 533.484C705.387 535.242 704.59 536.648 701.895 539.59L697.91 543.926V544.125H705.656V546H694.957V544.57L700.676 538.207C702.82 535.805 703.336 534.902 703.336 533.566C703.336 531.75 702.059 530.555 700.09 530.555C698.145 530.555 696.855 531.855 696.855 533.848V533.918H694.863V533.848Z" fill="black"/>
<path d="M1594.76 538.711V540.539C1594.76 542.883 1596.11 544.395 1598.21 544.395C1600.29 544.395 1601.64 542.895 1601.64 540.539V538.711C1601.64 536.367 1600.29 534.867 1598.21 534.867C1596.11 534.867 1594.76 536.367 1594.76 538.711ZM1601.65 544.055H1601.43C1600.77 545.461 1599.44 546.211 1597.62 546.211C1594.68 546.211 1592.76 544.09 1592.76 540.82V538.453C1592.76 535.195 1594.68 533.074 1597.62 533.074C1599.46 533.074 1600.82 533.859 1601.37 535.254H1601.58V528.293H1603.61V546H1601.65V544.055ZM1613.25 546.234C1609.89 546.234 1607.75 544.043 1607.75 540.609V538.688C1607.75 535.254 1609.89 533.062 1613.25 533.062C1616.62 533.062 1618.76 535.254 1618.76 538.688V540.609C1618.76 544.043 1616.62 546.234 1613.25 546.234ZM1613.25 534.82C1611.07 534.82 1609.71 536.367 1609.71 538.863V540.422C1609.71 542.93 1611.07 544.465 1613.25 544.465C1615.43 544.465 1616.79 542.93 1616.79 540.422V538.863C1616.79 536.367 1615.43 534.82 1613.25 534.82ZM1633.29 533.285V546H1631.38V543.762H1631.22C1630.54 545.344 1629.09 546.234 1627.15 546.234C1624.39 546.234 1622.89 544.582 1622.89 541.535V533.285H1624.88V541.031C1624.88 543.328 1625.82 544.406 1627.8 544.406C1629.89 544.406 1631.3 542.941 1631.3 540.773V533.285H1633.29ZM1640.76 529.875H1642.73V533.32H1647.88V535.02H1642.75V542.191C1642.75 543.574 1643.72 544.324 1645.52 544.324C1646.23 544.324 1647.51 544.289 1647.85 544.254V545.941C1647.53 546 1645.98 546.059 1645.38 546.059C1642.22 546.059 1640.76 544.863 1640.76 542.215V535.02H1637.37V533.32H1640.76V529.875Z" fill="black"/>
<path d="M395.762 538.711V540.539C395.762 542.883 397.109 544.395 399.207 544.395C401.293 544.395 402.641 542.895 402.641 540.539V538.711C402.641 536.367 401.293 534.867 399.207 534.867C397.109 534.867 395.762 536.367 395.762 538.711ZM402.652 544.055H402.43C401.773 545.461 400.438 546.211 398.621 546.211C395.68 546.211 393.758 544.09 393.758 540.82V538.453C393.758 535.195 395.68 533.074 398.621 533.074C400.461 533.074 401.82 533.859 402.371 535.254H402.582V528.293H404.609V546H402.652V544.055ZM413.727 536.531H413.984C414.453 534.176 416.035 532.957 418.484 532.957C419.211 532.957 419.902 533.062 420.324 533.238V535.477C419.738 535.266 418.918 535.125 418.227 535.125C415.414 535.125 413.75 537.07 413.75 540.305V544.406H417.688V546H409.238V544.406H411.805V534.879H408.98V533.285H413.727V536.531ZM424.461 536.719C424.461 534.516 426.336 533.039 429.137 533.039C431.785 533.039 433.578 534.363 433.812 536.484H431.891C431.656 535.371 430.59 534.691 429.102 534.691C427.484 534.691 426.441 535.441 426.441 536.602C426.441 537.574 427.098 538.125 428.691 538.477L430.484 538.887C432.957 539.449 434.082 540.527 434.082 542.367C434.082 544.711 432.125 546.234 429.113 546.234C426.23 546.234 424.32 544.887 424.098 542.707H426.125C426.418 543.879 427.543 544.559 429.184 544.559C430.918 544.559 432.02 543.773 432.02 542.555C432.02 541.547 431.398 541.008 429.781 540.645L427.895 540.211C425.598 539.684 424.461 538.523 424.461 536.719Z" fill="black"/>
<path d="M270.762 606.711V608.539C270.762 610.883 272.109 612.395 274.207 612.395C276.293 612.395 277.641 610.895 277.641 608.539V606.711C277.641 604.367 276.293 602.867 274.207 602.867C272.109 602.867 270.762 604.367 270.762 606.711ZM277.652 612.055H277.43C276.773 613.461 275.438 614.211 273.621 614.211C270.68 614.211 268.758 612.09 268.758 608.82V606.453C268.758 603.195 270.68 601.074 273.621 601.074C275.461 601.074 276.82 601.859 277.371 603.254H277.582V596.293H279.609V614H277.652V612.055ZM294.551 605.246H292.582C292.336 603.758 291.094 602.82 289.453 602.82C287.238 602.82 286.008 604.332 286.008 607.062V608.211C286.008 610.941 287.238 612.441 289.453 612.441C291.094 612.441 292.336 611.516 292.582 610.062H294.551C294.234 612.652 292.301 614.234 289.488 614.234C286.031 614.234 284.016 612.113 284.016 608.469V606.805C284.016 603.16 286.031 601.039 289.488 601.039C292.301 601.039 294.223 602.633 294.551 605.246ZM303.562 604.531H303.82C304.289 602.176 305.871 600.957 308.32 600.957C309.047 600.957 309.738 601.062 310.16 601.238V603.477C309.574 603.266 308.754 603.125 308.062 603.125C305.25 603.125 303.586 605.07 303.586 608.305V612.406H307.523V614H299.074V612.406H301.641V602.879H298.816V601.285H303.562V604.531Z" fill="black"/>
<path d="M24.3438 626.957V625.029H19.791V622.965H26.7773V627.162C26.7773 630.867 23.9883 633.41 20.0098 633.41C15.375 633.41 12.6953 630.293 12.6953 624.893V621.379C12.6953 615.979 15.375 612.861 20.0098 612.861C24.1113 612.861 26.6816 615.363 26.7773 619.451H24.3438C24.2344 616.881 22.4844 615.145 19.9688 615.145C16.7832 615.145 15.1289 617.291 15.1289 621.379V624.893C15.1289 628.98 16.7969 631.127 19.9824 631.127C22.6758 631.127 24.3438 629.541 24.3438 626.957ZM36.3477 621.953H36.6484C37.1953 619.205 39.041 617.783 41.8984 617.783C42.7461 617.783 43.5527 617.906 44.0449 618.111V620.723C43.3613 620.477 42.4043 620.312 41.5977 620.312C38.3164 620.312 36.375 622.582 36.375 626.355V631.141H40.9688V633H31.1113V631.141H34.1055V620.025H30.8105V618.166H36.3477V621.953ZM53.5605 637.58H51.1133L52.8906 627.818H56.0352L53.5605 637.58ZM82.9414 613.271H89.5039C93.332 613.271 95.834 615.773 95.834 619.602C95.834 623.416 93.3047 625.918 89.4492 625.918H85.3613V633H82.9414V613.271ZM85.3613 615.418V623.771H88.9023C91.7734 623.771 93.3867 622.281 93.3867 619.602C93.3867 616.908 91.7734 615.418 88.9023 615.418H85.3613ZM105.582 621.953H105.883C106.43 619.205 108.275 617.783 111.133 617.783C111.98 617.783 112.787 617.906 113.279 618.111V620.723C112.596 620.477 111.639 620.312 110.832 620.312C107.551 620.312 105.609 622.582 105.609 626.355V631.141H110.203V633H100.346V631.141H103.34V620.025H100.045V618.166H105.582V621.953ZM122.795 637.58H120.348L122.125 627.818H125.27L122.795 637.58ZM20.8574 666H18.4512V648.486H12.4902V646.271H26.8184V648.486H20.8574V666ZM36.3477 654.953H36.6484C37.1953 652.205 39.041 650.783 41.8984 650.783C42.7461 650.783 43.5527 650.906 44.0449 651.111V653.723C43.3613 653.477 42.4043 653.312 41.5977 653.312C38.3164 653.312 36.375 655.582 36.375 659.355V664.141H40.9688V666H31.1113V664.141H34.1055V653.025H30.8105V651.166H36.3477V654.953ZM53.5605 670.58H51.1133L52.8906 660.818H56.0352L53.5605 670.58ZM85.1016 648.418V656.102H89.0117C91.7324 656.102 93.2637 654.721 93.2637 652.26C93.2637 649.812 91.7598 648.418 89.1211 648.418H85.1016ZM89.6406 658.139H85.1016V666H82.7227V646.271H89.3398C93.25 646.271 95.6973 648.541 95.6973 652.205C95.6973 654.789 94.2617 656.908 92.0195 657.646L96.0391 666H93.3184L89.6406 658.139ZM105.582 654.953H105.883C106.43 652.205 108.275 650.783 111.133 650.783C111.98 650.783 112.787 650.906 113.279 651.111V653.723C112.596 653.477 111.639 653.312 110.832 653.312C107.551 653.312 105.609 655.582 105.609 659.355V664.141H110.203V666H100.346V664.141H103.34V653.025H100.045V651.166H105.582V654.953ZM122.795 670.58H120.348L122.125 660.818H125.27L122.795 670.58ZM26.873 699H24.1113L19.0391 691.631L17.002 693.6V699H14.6777V678.342H17.002V690.824H17.1797L23.6465 684.166H26.4629L20.707 690.031L26.873 699ZM36.3477 687.953H36.6484C37.1953 685.205 39.041 683.783 41.8984 683.783C42.7461 683.783 43.5527 683.906 44.0449 684.111V686.723C43.3613 686.477 42.4043 686.312 41.5977 686.312C38.3164 686.312 36.375 688.582 36.375 692.355V697.141H40.9688V699H31.1113V697.141H34.1055V686.025H30.8105V684.166H36.3477V687.953Z" fill="black"/>
<path d="M157.25 196.094V193.891H152.047V191.531H160.031V196.328C160.031 200.562 156.844 203.469 152.297 203.469C147 203.469 143.938 199.906 143.938 193.734V189.719C143.938 183.547 147 179.984 152.297 179.984C156.984 179.984 159.922 182.844 160.031 187.516H157.25C157.125 184.578 155.125 182.594 152.25 182.594C148.609 182.594 146.719 185.047 146.719 189.719V193.734C146.719 198.406 148.625 200.859 152.266 200.859C155.344 200.859 157.25 199.047 157.25 196.094ZM171.969 181.891C170.719 181.891 169.766 180.953 169.766 179.703C169.766 178.469 170.719 177.531 171.969 177.531C173.219 177.531 174.172 178.469 174.172 179.703C174.172 180.953 173.219 181.891 171.969 181.891ZM179.078 203H165.031V200.797H170.844V188.25H165.078V186.047H173.469V200.797H179.078V203ZM190.641 208.234H187.844L189.875 197.078H193.469L190.641 208.234ZM224.219 180.453H231.719C236.094 180.453 238.953 183.312 238.953 187.688C238.953 192.047 236.062 194.906 231.656 194.906H226.984V203H224.219V180.453ZM226.984 182.906V192.453H231.031C234.312 192.453 236.156 190.75 236.156 187.688C236.156 184.609 234.312 182.906 231.031 182.906H226.984ZM251.094 181.891C249.844 181.891 248.891 180.953 248.891 179.703C248.891 178.469 249.844 177.531 251.094 177.531C252.344 177.531 253.297 178.469 253.297 179.703C253.297 180.953 252.344 181.891 251.094 181.891ZM258.203 203H244.156V200.797H249.969V188.25H244.203V186.047H252.594V200.797H258.203V203ZM269.766 208.234H266.969L269 197.078H272.594L269.766 208.234ZM153.266 241H150.516V220.984H143.703V218.453H160.078V220.984H153.266V241ZM171.969 219.891C170.719 219.891 169.766 218.953 169.766 217.703C169.766 216.469 170.719 215.531 171.969 215.531C173.219 215.531 174.172 216.469 174.172 217.703C174.172 218.953 173.219 219.891 171.969 219.891ZM179.078 241H165.031V238.797H170.844V226.25H165.078V224.047H173.469V238.797H179.078V241ZM190.641 246.234H187.844L189.875 235.078H193.469L190.641 246.234ZM226.688 220.906V229.688H231.156C234.266 229.688 236.016 228.109 236.016 225.297C236.016 222.5 234.297 220.906 231.281 220.906H226.688ZM231.875 232.016H226.688V241H223.969V218.453H231.531C236 218.453 238.797 221.047 238.797 225.234C238.797 228.188 237.156 230.609 234.594 231.453L239.188 241H236.078L231.875 232.016ZM251.094 219.891C249.844 219.891 248.891 218.953 248.891 217.703C248.891 216.469 249.844 215.531 251.094 215.531C252.344 215.531 253.297 216.469 253.297 217.703C253.297 218.953 252.344 219.891 251.094 219.891ZM258.203 241H244.156V238.797H249.969V226.25H244.203V224.047H252.594V238.797H258.203V241ZM269.766 246.234H266.969L269 235.078H272.594L269.766 246.234ZM160.141 279H156.984L151.188 270.578L148.859 272.828V279H146.203V255.391H148.859V269.656H149.062L156.453 262.047H159.672L153.094 268.75L160.141 279ZM171.969 257.891C170.719 257.891 169.766 256.953 169.766 255.703C169.766 254.469 170.719 253.531 171.969 253.531C173.219 253.531 174.172 254.469 174.172 255.703C174.172 256.953 173.219 257.891 171.969 257.891ZM179.078 279H165.031V276.797H170.844V264.25H165.078V262.047H173.469V276.797H179.078V279Z" fill="black"/>
<path d="M104.121 540.121C105.293 538.95 105.293 537.05 104.121 535.879L85.0294 516.787C83.8579 515.615 81.9584 515.615 80.7868 516.787C79.6152 517.958 79.6152 519.858 80.7868 521.029L97.7574 538L80.7868 554.971C79.6152 556.142 79.6152 558.042 80.7868 559.213C81.9584 560.385 83.8579 560.385 85.0294 559.213L104.121 540.121ZM27 541H102V535H27V541Z" fill="#FC5A5D"/>
<path d="M269.879 341.121C271.05 342.293 272.95 342.293 274.121 341.121L293.213 322.029C294.385 320.858 294.385 318.958 293.213 317.787C292.042 316.615 290.142 316.615 288.971 317.787L272 334.757L255.029 317.787C253.858 316.615 251.958 316.615 250.787 317.787C249.615 318.958 249.615 320.858 250.787 322.029L269.879 341.121ZM269 264L269 339L275 339L275 264L269 264Z" fill="#59BFFF"/>
</svg>
